<?xml version="1.0" encoding="utf-8"?>
<!-- Generator: Adobe Illustrator 28.1.0, SVG Export Plug-In . SVG Version: 6.00 Build 0)  -->
<svg version="1.1" id="레이어_1" xmlns="http://www.w3.org/2000/svg" xmlns:xlink="http://www.w3.org/1999/xlink" x="0px"
	 y="0px" viewBox="0 0 240.1 28" style="enable-background:new 0 0 240.1 28;" xml:space="preserve">
<style type="text/css">
	.st0{fill:#163348;}
	.st1{fill:#D16FA7;}
	.st2{fill:#EEC600;}
	.st3{fill:#E47627;}
	.st4{fill:#2FA5CD;}
	.st5{fill:#6FB92C;}
</style>
<g>
	<g>
		<path class="st0" d="M85.5,11.5c0.6,0.6,1.3,1,2.1,1.3c0.8,0.3,1.7,0.5,2.6,0.5c0.9,0,1.8-0.2,2.6-0.5c0.8-0.3,1.5-0.8,2.2-1.3
			c0.6-0.5,1.1-1.2,1.4-1.9C96.8,8.8,97,8,97,7.1c0-0.9-0.2-1.7-0.5-2.4c-0.4-0.8-0.8-1.4-1.4-2c-0.6-0.5-1.3-1-2.2-1.3
			c-0.8-0.3-1.7-0.5-2.6-0.5c-0.9,0-1.8,0.2-2.6,0.5c-0.8,0.3-1.5,0.8-2.1,1.3c-0.6,0.6-1.1,1.2-1.5,2c-0.4,0.8-0.5,1.6-0.5,2.4
			c0,0.8,0.2,1.7,0.5,2.4C84.4,10.3,84.9,11,85.5,11.5z M88.2,5.1c0.6-0.5,1.3-0.8,2.1-0.8c0.8,0,1.5,0.3,2.1,0.8
			c0.6,0.5,0.8,1.2,0.8,2c0,0.8-0.3,1.4-0.8,2c-0.6,0.5-1.3,0.8-2.1,0.8c-0.8,0-1.5-0.3-2.1-0.8c-0.6-0.5-0.8-1.2-0.8-2
			C87.3,6.3,87.6,5.7,88.2,5.1z"/>
		<rect x="80.4" y="14.6" class="st0" width="19.8" height="3.4"/>
		<polygon class="st0" points="87,19.1 83.2,19.1 83.2,27.1 98,27.1 98,23.8 87,23.8 		"/>
	</g>
	<g>
		<path class="st0" d="M120.3,17.5c-0.5-0.5-1.2-0.9-1.9-1.2c-0.7-0.3-1.5-0.4-2.3-0.4c-0.8,0-1.6,0.1-2.3,0.4
			c-0.7,0.3-1.4,0.7-1.9,1.2c-0.6,0.5-1,1.1-1.3,1.8c-0.3,0.7-0.5,1.4-0.5,2.2c0,0.8,0.2,1.5,0.5,2.2c0.3,0.7,0.7,1.3,1.3,1.7
			c0.5,0.5,1.2,0.9,1.9,1.2c0.7,0.3,1.5,0.4,2.3,0.4c0.8,0,1.6-0.1,2.3-0.4c0.7-0.3,1.4-0.7,1.9-1.2c0.5-0.5,1-1.1,1.3-1.7
			c0.3-0.7,0.5-1.4,0.5-2.2c0-0.8-0.2-1.5-0.5-2.2C121.3,18.6,120.9,18,120.3,17.5z M117.8,23c-0.5,0.4-1,0.6-1.7,0.6
			c-0.7,0-1.2-0.2-1.7-0.6c-0.5-0.4-0.7-1-0.7-1.6c0-0.6,0.2-1.1,0.7-1.5c0.5-0.4,1-0.6,1.7-0.6c0.7,0,1.2,0.2,1.7,0.6
			c0.5,0.4,0.7,0.9,0.7,1.5C118.5,22.1,118.2,22.6,117.8,23z"/>
		<polygon class="st0" points="115.9,12.8 110.5,4.3 110.5,0.9 106.8,0.9 106.8,4.2 101.5,12.8 104.5,15 108.6,7.9 112.8,15 		"/>
		<polygon class="st0" points="118.8,5.8 114.2,5.8 114.2,9.3 118.8,9.3 118.8,15.5 122.7,15.5 122.7,0.9 118.8,0.9 		"/>
	</g>
	<path class="st0" d="M137.2,12.7h5.7V0.9h-15.1v11.8h5.6v2.8h-7.9V19h19.7v-3.5h-7.9V12.7z M131.5,9.2V4.5h7.6v4.7H131.5z"/>
	<g>
		<path class="st0" d="M156.4,13.7c0.8-0.3,1.5-0.8,2.1-1.4c0.6-0.6,1-1.3,1.4-2.1c0.3-0.8,0.5-1.7,0.5-2.6c0-0.9-0.2-1.8-0.5-2.6
			c-0.3-0.8-0.8-1.5-1.4-2.1c-0.6-0.6-1.3-1.1-2.1-1.4c-0.8-0.4-1.7-0.5-2.6-0.5c-0.9,0-1.8,0.2-2.5,0.5c-0.8,0.4-1.5,0.8-2,1.4
			c-0.6,0.6-1.1,1.3-1.4,2.1s-0.5,1.7-0.5,2.6c0,0.9,0.2,1.8,0.5,2.6c0.3,0.8,0.8,1.5,1.4,2.1c0.6,0.6,1.2,1.1,2,1.4
			c0.8,0.3,1.6,0.5,2.5,0.5C154.7,14.3,155.6,14.1,156.4,13.7z M151.8,10.1c-0.3-0.3-0.5-0.6-0.6-1c-0.2-0.4-0.2-0.8-0.2-1.3
			c0-1,0.3-1.8,0.8-2.4c0.6-0.6,1.3-0.9,2.1-0.9c0.8,0,1.5,0.3,2.1,0.9c0.6,0.6,0.8,1.4,0.8,2.4c0,0.5-0.1,0.9-0.2,1.3
			c-0.2,0.4-0.4,0.8-0.6,1c-0.3,0.3-0.6,0.6-0.9,0.7c-0.4,0.2-0.7,0.3-1.1,0.3c-0.4,0-0.8-0.1-1.1-0.3
			C152.3,10.7,152,10.5,151.8,10.1z"/>
		<polygon class="st0" points="166.7,0.9 162.8,0.9 162.8,17.1 166.7,17.1 166.7,10.5 170.5,10.5 170.5,6.9 166.7,6.9 		"/>
		<polygon class="st0" points="156.7,16.7 152.8,16.7 152.8,25.4 166.4,25.4 166.4,21.9 156.7,21.9 		"/>
	</g>
	<g>
		<rect x="212.9" y="0.9" class="st0" width="3.8" height="22.3"/>
		<path class="st0" d="M199.1,11.8c0.6,0.6,1.2,1,2,1.4c0.8,0.3,1.6,0.5,2.5,0.5c0.9,0,1.7-0.2,2.5-0.5c0.8-0.3,1.4-0.8,2-1.4
			c0.6-0.6,1-1.2,1.4-2c0.3-0.8,0.5-1.6,0.5-2.5c0-0.9-0.2-1.7-0.5-2.5c-0.3-0.8-0.8-1.4-1.4-2c-0.6-0.6-1.3-1-2-1.4
			c-0.8-0.3-1.6-0.5-2.5-0.5c-0.9,0-1.7,0.2-2.5,0.5c-0.8,0.3-1.5,0.8-2,1.4c-0.6,0.6-1.1,1.3-1.4,2c-0.3,0.8-0.5,1.6-0.5,2.5
			c0,0.9,0.2,1.7,0.5,2.5C198.1,10.5,198.5,11.2,199.1,11.8z M201.7,5.3c0.5-0.6,1.2-0.8,1.9-0.8c0.4,0,0.7,0.1,1,0.2
			c0.3,0.1,0.6,0.3,0.9,0.6c0.2,0.3,0.4,0.6,0.6,0.9c0.1,0.4,0.2,0.7,0.2,1.1c0,0.4-0.1,0.7-0.2,1.1c-0.1,0.4-0.3,0.7-0.6,0.9
			c-0.2,0.3-0.5,0.5-0.9,0.6c-0.3,0.1-0.7,0.2-1,0.2c-0.8,0-1.4-0.3-1.9-0.8c-0.5-0.5-0.8-1.2-0.8-2C200.9,6.5,201.2,5.8,201.7,5.3z
			"/>
		<rect x="196.5" y="16" class="st0" width="15.3" height="3.4"/>
	</g>
	<g>
		<polygon class="st0" points="229,18.8 229,15.5 235,15.5 235,12.4 220,12.4 220,15.5 225.1,15.5 225.1,18.8 		"/>
		<path class="st0" d="M223,10.3c0.5,0.5,1.2,0.9,1.9,1.2c0.7,0.3,1.5,0.4,2.3,0.4c0.8,0,1.6-0.1,2.4-0.4c0.7-0.3,1.4-0.7,1.9-1.2
			c0.5-0.5,1-1.1,1.3-1.7c0.3-0.7,0.5-1.4,0.5-2.1c0-0.8-0.2-1.5-0.5-2.2c-0.3-0.7-0.7-1.3-1.3-1.7c-0.6-0.5-1.2-0.9-1.9-1.2
			c-0.7-0.3-1.5-0.4-2.4-0.4c-0.8,0-1.6,0.1-2.3,0.4c-0.7,0.3-1.4,0.7-1.9,1.2c-0.5,0.5-1,1.1-1.3,1.7c-0.3,0.7-0.5,1.4-0.5,2.2
			c0,0.8,0.2,1.5,0.5,2.1C222.1,9.3,222.5,9.8,223,10.3z M225.5,4.8c0.5-0.4,1.1-0.6,1.8-0.6c0.7,0,1.3,0.2,1.8,0.6
			c0.5,0.4,0.7,1,0.7,1.7c0,0.6-0.2,1.2-0.7,1.6c-0.5,0.4-1.1,0.6-1.8,0.6c-0.7,0-1.3-0.2-1.8-0.6c-0.5-0.4-0.7-0.9-0.7-1.6
			C224.8,5.8,225,5.2,225.5,4.8z"/>
		<polygon class="st0" points="229.7,19.5 225.8,19.5 225.8,26.8 239.4,26.8 239.4,23.3 229.7,23.3 		"/>
		<polygon class="st0" points="236.2,16 232.9,16 232.9,19.1 240.1,19.1 240.1,1.7 236.2,1.7 		"/>
	</g>
	<g>
		<polygon class="st0" points="191.1,0.9 187.2,0.9 187.2,23.2 191.1,23.2 191.1,12.7 194.9,12.7 194.9,9.1 191.1,9.1 		"/>
		<polygon class="st0" points="179.3,9.8 175.4,9.8 175.4,17.4 172.1,17.4 172.1,20.9 186.3,20.9 186.3,17.4 179.3,17.4 		"/>
		<polygon class="st0" points="181.4,15.4 185.1,15.4 185.1,1.6 173,1.6 173,5.1 181.4,5.1 		"/>
	</g>
	<g>
		<path class="st0" d="M64.8,5.5h-4.7V0.9h-3.7v13.2h12.1V0.9h-3.7V5.5z M64.8,10.9h-4.7V8.8h4.7V10.9z"/>
		<polygon class="st0" points="75.6,0.9 71.7,0.9 71.7,13.8 75.6,13.8 75.6,9.8 79.4,9.8 79.4,6.2 75.6,6.2 		"/>
		<polygon class="st0" points="61.6,18.2 64.6,18.2 64.6,20 61.6,20 61.6,26.7 68.2,26.7 68.2,24.1 65.1,24.1 65.1,22.3 68.2,22.3 
			68.2,15.3 61.6,15.3 		"/>
		<polygon class="st0" points="69.1,18.7 71.3,18.7 71.3,26.7 74.9,26.7 74.9,15.3 69.1,15.3 		"/>
	</g>
</g>
<g>
	<g>
		<path class="st1" d="M25.2,5.9c0,0.9-0.8,1.7-1.7,1.7l0,0c-0.9,0-1.7-0.8-1.7-1.7V1.7c0-0.9,0.8-1.7,1.7-1.7l0,0
			c0.9,0,1.7,0.8,1.7,1.7V5.9z"/>
		<path class="st2" d="M15.1,6.6c0.4,0.8,0,1.9-0.8,2.2l0,0c-0.8,0.4-1.9,0-2.2-0.8l-1.8-3.8c-0.4-0.8,0-1.9,0.8-2.2l0,0
			c0.8-0.4,1.9,0,2.2,0.8L15.1,6.6z"/>
		<path class="st3" d="M5.9,10.6c0.7,0.6,0.8,1.7,0.2,2.4l0,0c-0.6,0.7-1.7,0.8-2.4,0.2l-3.1-2.8C-0.1,9.8-0.2,8.7,0.4,8l0,0
			C1,7.3,2.1,7.2,2.8,7.8L5.9,10.6z"/>
	</g>
	<g>
		<path class="st4" d="M32,6.6c-0.4,0.8,0,1.9,0.8,2.2l0,0c0.8,0.4,1.9,0,2.2-0.8l1.8-3.8c0.4-0.8,0-1.9-0.8-2.2l0,0
			c-0.8-0.4-1.9,0-2.2,0.8L32,6.6z"/>
		<path class="st5" d="M41.1,10.6c-0.7,0.6-0.8,1.7-0.2,2.4l0,0c0.6,0.7,1.7,0.8,2.4,0.2l3.1-2.8c0.7-0.6,0.8-1.7,0.2-2.4l0,0
			C46,7.3,45,7.2,44.3,7.8L41.1,10.6z"/>
	</g>
	<path class="st0" d="M23.5,13.7c-3.9,0-7.1,3.2-7.1,7.1c0,3.9,3.2,7.1,7.1,7.1c3.9,0,7.1-3.2,7.1-7.1
		C30.7,16.9,27.5,13.7,23.5,13.7z M23.5,23.8c-1.6,0-2.9-1.3-2.9-2.9c0-1.6,1.3-2.9,2.9-2.9c1.6,0,2.9,1.3,2.9,2.9
		C26.4,22.5,25.1,23.8,23.5,23.8z"/>
	<path class="st0" d="M42.4,19.6c-0.1-0.2-0.1-0.3-0.2-0.4c-0.3-0.3-0.5-0.6-0.8-0.9c-4.4-4.6-10.8-7.4-17.9-7.4l0,0c0,0,0,0,0,0
		c0,0,0,0,0,0l0,0c-7.1,0-13.6,2.9-17.9,7.4c-0.3,0.3-0.5,0.6-0.8,0.9c-0.1,0.1-0.1,0.3-0.2,0.4c-0.1,0.2-0.1,0.4-0.1,0.6
		c0,1.2,1,2.2,2.2,2.2c0.4,0,0.7-0.1,1-0.2c0.1-0.1,0.2-0.2,0.4-0.3c0.2-0.2,0.4-0.4,0.5-0.6c3.6-3.9,8.9-6.4,14.9-6.4
		c6,0,11.4,2.5,14.9,6.4c0.2,0.2,0.4,0.4,0.5,0.6c0.1,0.1,0.2,0.2,0.4,0.3c0.3,0.2,0.6,0.2,1,0.2c1.2,0,2.2-1,2.2-2.2
		C42.5,20,42.5,19.8,42.4,19.6z"/>
</g>
</svg>
